# Blender v2.83.19 OBJ File: ''
# www.blender.org
mtllib nigga.mtl
o Cube.010
v -0.416309 -0.424093 0.416309
v -0.588240 2.569829 0.588240
v -0.468045 -0.471017 -0.468045
v -0.532672 2.565969 -0.532672
v 0.627005 -0.615192 0.627005
v 0.635606 2.573118 0.635606
v 0.373452 -0.385222 -0.373452
v 0.689210 2.576840 -0.689210
v -0.287232 9.568062 0.287232
v -0.156064 9.551517 -0.156064
v 0.240915 9.562219 -0.240915
v 0.208513 9.558132 0.208513
v -0.352092 -0.368267 -0.000000
v -0.559948 0.269926 0.559948
v -0.474989 2.553829 0.000000
v -0.547329 0.271929 -0.547329
v 0.000000 -0.593300 -0.592209
v -0.000000 2.575088 -0.920164
v 0.696244 0.248284 -0.696244
v 0.752597 -0.743611 0.000000
v 0.803287 2.569507 -0.000000
v 0.458332 0.286061 0.458332
v -0.000000 -0.511057 0.504453
v 0.000000 2.582479 1.074933
v -0.260400 10.189165 0.000000
v -0.000000 10.213032 -0.377034
v 0.198459 10.176489 -0.000000
v 0.000000 10.169809 0.165814
v -0.480534 6.550911 -0.480534
v 0.271104 6.529260 -0.271104
v 0.600120 6.563275 0.600120
v -0.148423 6.516577 0.148423
v -0.787709 0.256767 -0.000000
v 0.000000 0.235925 -0.976575
v 0.660889 0.270761 0.000000
v -0.000000 0.284360 0.537662
v 0.000000 -0.749544 0.000000
v 0.000000 6.609121 -0.612976
v -0.000000 11.482756 -0.000000
v 0.655201 6.612155 0.000000
v -0.120948 6.573772 -0.000000
v -0.000000 6.595735 0.426644
vt 0.375000 0.000000
vt 0.494792 0.000000
vt 0.494792 0.125000
vt 0.375000 0.125000
vt 0.583333 0.000000
vt 0.583333 0.125000
vt 0.583333 0.250000
vt 0.494792 0.250000
vt 0.375000 0.250000
vt 0.493924 0.374132
vt 0.369792 0.369792
vt 0.583333 0.375000
vt 0.583333 0.500000
vt 0.491319 0.496528
vt 0.333333 0.458333
vt 0.493056 0.625000
vt 0.368056 0.625000
vt 0.583333 0.625000
vt 0.583333 0.750000
vt 0.491319 0.753472
vt 0.333333 0.791667
vt 0.493924 0.875868
vt 0.369792 0.880208
vt 0.583333 0.875000
vt 0.583333 1.000000
vt 0.494792 1.000000
vt 0.375000 1.000000
vt 0.125000 0.500000
vt 0.244792 0.494792
vt 0.248264 0.625000
vt 0.125000 0.625000
vt 0.244792 0.755208
vt 0.125000 0.750000
vt 0.620660 0.374132
vt 0.624132 0.496528
vt 0.619792 0.250000
vt 0.625000 0.250000
vt 0.630208 0.369792
vt 0.666667 0.458333
vt 0.755208 0.494792
vt 0.755208 0.625000
vt 0.666667 0.625000
vt 0.875000 0.500000
vt 0.875000 0.625000
vt 0.875000 0.750000
vt 0.755208 0.755208
vt 0.666667 0.791667
vt 0.625000 0.625000
vt 0.624132 0.753472
vt 0.619792 0.125000
vt 0.619792 0.000000
vt 0.625000 0.000000
vt 0.625000 0.125000
vt 0.620660 0.875868
vt 0.619792 1.000000
vt 0.630208 0.880208
vt 0.625000 1.000000
vn -0.9020 -0.4106 0.1332
vn -0.9934 0.0609 0.0975
vn -0.9838 0.0707 -0.1646
vn -0.9310 -0.3553 -0.0834
vn -0.4929 -0.2689 -0.8275
vn -0.6029 0.0141 -0.7977
vn 0.3461 0.0133 -0.9381
vn 0.4511 -0.4672 -0.7604
vn 0.9134 -0.1978 -0.3557
vn 0.9980 -0.0291 -0.0564
vn 0.9439 -0.0782 0.3208
vn 0.9514 0.1529 0.2674
vn -0.0325 0.0763 0.9966
vn 0.4223 -0.1555 0.8930
vn -0.3701 -0.1157 0.9218
vn -0.0760 -0.1248 0.9893
vn -0.5216 -0.8530 0.0140
vn 0.2566 -0.8075 -0.5311
vn -0.0941 -0.9500 0.2976
vn -0.5268 -0.8400 0.1299
vn 0.5157 0.1042 -0.8504
vn -0.4584 0.0428 -0.8877
vn -0.5649 0.0973 -0.8194
vn 0.7058 0.0316 -0.7077
vn 0.8791 0.1663 -0.4466
vn -0.8210 0.1116 -0.5599
vn -0.5153 0.2022 0.8328
vn 0.6308 0.1508 0.7611
vn 0.9837 0.0233 0.1782
vn 0.8815 0.0867 -0.4641
vn 0.7899 0.0611 -0.6102
vn 0.9765 0.1363 0.1668
vn -0.9239 0.0444 0.3800
vn -0.9794 0.0875 -0.1822
vn -0.9829 -0.0373 -0.1805
vn -0.9310 0.0081 0.3649
vn -0.7218 0.1327 0.6792
vn 0.2123 0.0841 0.9736
vn -0.1931 0.0856 0.9774
vn -0.3522 0.0099 0.9359
usemtl None
s off
f 1/1/1 14/2/1 33/3/1 13/4/1
f 14/2/2 2/5/2 15/6/2 33/3/2
f 33/3/3 15/6/3 4/7/3 16/8/3
f 13/4/4 33/3/4 16/8/4 3/9/4
f 3/9/5 16/8/5 34/10/5 17/11/5
f 16/8/6 4/7/6 18/12/6 34/10/6
f 34/10/7 18/12/7 8/13/7 19/14/7
f 17/11/8 34/10/8 19/14/8 7/15/8
f 7/15/9 19/14/9 35/16/9 20/17/9
f 19/14/10 8/13/10 21/18/10 35/16/10
f 35/16/11 21/18/11 6/19/11 22/20/11
f 20/17/12 35/16/12 22/20/12 5/21/12
f 5/21/13 22/20/13 36/22/13 23/23/13
f 22/20/14 6/19/14 24/24/14 36/22/14
f 36/22/15 24/24/15 2/25/15 14/26/15
f 23/23/16 36/22/16 14/26/16 1/27/16
f 3/28/17 17/29/17 37/30/17 13/31/17
f 17/29/18 7/15/18 20/17/18 37/30/18
f 37/30/19 20/17/19 5/21/19 23/32/19
f 13/31/20 37/30/20 23/32/20 1/33/20
f 8/13/21 18/12/21 38/34/21 30/35/21
f 18/12/22 4/7/22 29/36/22 38/34/22
f 38/34/23 29/36/23 10/37/23 26/38/23
f 30/35/24 38/34/24 26/38/24 11/39/24
f 11/39/25 26/40/25 39/41/25 27/42/25
f 26/40/26 10/43/26 25/44/26 39/41/26
f 39/41/27 25/44/27 9/45/27 28/46/27
f 27/42/28 39/41/28 28/46/28 12/47/28
f 6/19/29 21/18/29 40/48/29 31/49/29
f 21/18/30 8/13/30 30/35/30 40/48/30
f 40/48/31 30/35/31 11/39/31 27/42/31
f 31/49/32 40/48/32 27/42/32 12/47/32
f 4/7/33 15/6/33 41/50/33 29/36/33
f 15/6/34 2/5/34 32/51/34 41/50/34
f 41/50/35 32/51/35 9/52/35 25/53/35
f 29/36/36 41/50/36 25/53/36 10/37/36
f 2/25/37 24/24/37 42/54/37 32/55/37
f 24/24/38 6/19/38 31/49/38 42/54/38
f 42/54/39 31/49/39 12/47/39 28/56/39
f 32/55/40 42/54/40 28/56/40 9/57/40
