# Blender v2.83.19 OBJ File: ''
# www.blender.org
mtllib nigga2.mtl
o Cube.012_Cube.013
v -0.225774 -0.424093 0.225774
v -0.319016 2.569829 0.319016
v -0.253832 -0.471017 -0.253832
v -0.288880 2.565969 -0.288880
v 0.340039 -0.615192 0.340039
v 0.344704 2.573118 0.344704
v 0.202531 -0.385222 -0.202531
v 0.373774 2.576840 -0.373774
v -0.155773 9.568062 0.155773
v -0.084637 9.551517 -0.084637
v 0.130654 9.562219 -0.130654
v 0.113081 9.558132 0.113081
v -0.190947 -0.368267 -0.000000
v -0.303673 0.269926 0.303672
v -0.257598 2.553829 0.000000
v -0.296829 0.271929 -0.296829
v 0.000000 -0.593300 -0.321169
v -0.000000 2.575088 -0.499026
v 0.377589 0.248284 -0.377589
v 0.408151 -0.743611 0.000000
v 0.435641 2.569507 -0.000000
v 0.248564 0.286061 0.248564
v -0.000000 -0.511057 0.273577
v 0.000000 2.582479 0.582961
v -0.141221 10.189165 0.000000
v -0.000000 10.213032 -0.204474
v 0.107629 10.176489 -0.000000
v 0.000000 10.169809 0.089925
v -0.260605 6.550911 -0.260605
v 0.147026 6.529260 -0.147026
v 0.325459 6.563275 0.325459
v -0.080493 6.516577 0.080493
v -0.427193 0.256767 -0.000000
v 0.000000 0.235925 -0.529619
v 0.358415 0.270761 0.000000
v -0.000000 0.284360 0.291587
v 0.000000 -0.749544 0.000000
v 0.000000 6.609121 -0.332431
v -0.000000 11.482756 -0.000000
v 0.355331 6.612155 0.000000
v -0.065593 6.573772 -0.000000
v -0.000000 6.595735 0.231379
vt 0.375000 0.000000
vt 0.494792 0.000000
vt 0.494792 0.125000
vt 0.375000 0.125000
vt 0.583333 0.000000
vt 0.583333 0.125000
vt 0.583333 0.250000
vt 0.494792 0.250000
vt 0.375000 0.250000
vt 0.493924 0.374132
vt 0.369792 0.369792
vt 0.583333 0.375000
vt 0.583333 0.500000
vt 0.491319 0.496528
vt 0.333333 0.458333
vt 0.493056 0.625000
vt 0.368056 0.625000
vt 0.583333 0.625000
vt 0.583333 0.750000
vt 0.491319 0.753472
vt 0.333333 0.791667
vt 0.493924 0.875868
vt 0.369792 0.880208
vt 0.583333 0.875000
vt 0.583333 1.000000
vt 0.494792 1.000000
vt 0.375000 1.000000
vt 0.125000 0.500000
vt 0.244792 0.494792
vt 0.248264 0.625000
vt 0.125000 0.625000
vt 0.244792 0.755208
vt 0.125000 0.750000
vt 0.620660 0.374132
vt 0.624132 0.496528
vt 0.619792 0.250000
vt 0.625000 0.250000
vt 0.630208 0.369792
vt 0.666667 0.458333
vt 0.755208 0.494792
vt 0.755208 0.625000
vt 0.666667 0.625000
vt 0.875000 0.500000
vt 0.875000 0.625000
vt 0.875000 0.750000
vt 0.755208 0.755208
vt 0.666667 0.791667
vt 0.625000 0.625000
vt 0.624132 0.753472
vt 0.619792 0.125000
vt 0.619792 0.000000
vt 0.625000 0.000000
vt 0.625000 0.125000
vt 0.620660 0.875868
vt 0.619792 1.000000
vt 0.630208 0.880208
vt 0.625000 1.000000
vn -0.9610 -0.2373 0.1419
vn -0.9947 0.0331 0.0977
vn -0.9856 0.0384 -0.1649
vn -0.9755 -0.2019 -0.0874
vn -0.5060 -0.1497 -0.8494
vn -0.6029 0.0077 -0.7978
vn 0.3461 0.0072 -0.9382
vn 0.4904 -0.2755 -0.8268
vn 0.9263 -0.1088 -0.3607
vn 0.9983 -0.0158 -0.0564
vn 0.9460 -0.0425 0.3215
vn 0.9593 0.0836 0.2696
vn -0.0325 0.0415 0.9986
vn 0.4260 -0.0851 0.9007
vn -0.3719 -0.0630 0.9261
vn -0.0764 -0.0681 0.9948
vn -0.7480 -0.6634 0.0201
vn 0.3493 -0.5961 -0.7229
vn -0.1561 -0.8553 0.4941
vn -0.7436 -0.6430 0.1834
vn 0.5177 0.0567 -0.8537
vn -0.4587 0.0232 -0.8883
vn -0.5668 0.0529 -0.8222
vn 0.7060 0.0171 -0.7080
vn 0.8878 0.0911 -0.4511
vn -0.8246 0.0608 -0.5624
vn -0.5229 0.1113 0.8451
vn 0.6360 0.0824 0.7673
vn 0.9839 0.0126 0.1782
vn 0.8839 0.0471 -0.4654
vn 0.7909 0.0332 -0.6110
vn 0.9830 0.0744 0.1679
vn -0.9246 0.0241 0.3803
vn -0.9820 0.0476 -0.1827
vn -0.9833 -0.0202 -0.1806
vn -0.9311 0.0044 0.3649
vn -0.7264 0.0724 0.6835
vn 0.2128 0.0457 0.9760
vn -0.1936 0.0465 0.9800
vn -0.3523 0.0053 0.9359
usemtl None
s off
f 1/1/1 14/2/1 33/3/1 13/4/1
f 14/2/2 2/5/2 15/6/2 33/3/2
f 33/3/3 15/6/3 4/7/3 16/8/3
f 13/4/4 33/3/4 16/8/4 3/9/4
f 3/9/5 16/8/5 34/10/5 17/11/5
f 16/8/6 4/7/6 18/12/6 34/10/6
f 34/10/7 18/12/7 8/13/7 19/14/7
f 17/11/8 34/10/8 19/14/8 7/15/8
f 7/15/9 19/14/9 35/16/9 20/17/9
f 19/14/10 8/13/10 21/18/10 35/16/10
f 35/16/11 21/18/11 6/19/11 22/20/11
f 20/17/12 35/16/12 22/20/12 5/21/12
f 5/21/13 22/20/13 36/22/13 23/23/13
f 22/20/14 6/19/14 24/24/14 36/22/14
f 36/22/15 24/24/15 2/25/15 14/26/15
f 23/23/16 36/22/16 14/26/16 1/27/16
f 3/28/17 17/29/17 37/30/17 13/31/17
f 17/29/18 7/15/18 20/17/18 37/30/18
f 37/30/19 20/17/19 5/21/19 23/32/19
f 13/31/20 37/30/20 23/32/20 1/33/20
f 8/13/21 18/12/21 38/34/21 30/35/21
f 18/12/22 4/7/22 29/36/22 38/34/22
f 38/34/23 29/36/23 10/37/23 26/38/23
f 30/35/24 38/34/24 26/38/24 11/39/24
f 11/39/25 26/40/25 39/41/25 27/42/25
f 26/40/26 10/43/26 25/44/26 39/41/26
f 39/41/27 25/44/27 9/45/27 28/46/27
f 27/42/28 39/41/28 28/46/28 12/47/28
f 6/19/29 21/18/29 40/48/29 31/49/29
f 21/18/30 8/13/30 30/35/30 40/48/30
f 40/48/31 30/35/31 11/39/31 27/42/31
f 31/49/32 40/48/32 27/42/32 12/47/32
f 4/7/33 15/6/33 41/50/33 29/36/33
f 15/6/34 2/5/34 32/51/34 41/50/34
f 41/50/35 32/51/35 9/52/35 25/53/35
f 29/36/36 41/50/36 25/53/36 10/37/36
f 2/25/37 24/24/37 42/54/37 32/55/37
f 24/24/38 6/19/38 31/49/38 42/54/38
f 42/54/39 31/49/39 12/47/39 28/56/39
f 32/55/40 42/54/40 28/56/40 9/57/40
